<svg xmlns="http://www.w3.org/2000/svg" viewBox="0 0 60 60"><defs><style>.cls-1{fill:#fff;}.cls-2{fill:#51af7f;}</style></defs><title>资源 17</title><g id="图层_2" data-name="图层 2"><g id="图层_1-2" data-name="图层 1"><rect class="cls-1" width="60" height="60" rx="30"/><path class="cls-2" d="M40.49,48.84,23.38,31.73a2.46,2.46,0,0,1,0-3.46L40.49,11.16A2.44,2.44,0,0,0,38.76,7h0A2.47,2.47,0,0,0,37,7.71L16.48,28.27a2.46,2.46,0,0,0,0,3.46L37,52.29a2.47,2.47,0,0,0,1.72.71h0A2.44,2.44,0,0,0,40.49,48.84Z"/><rect class="cls-2" x="31.95" y="26.17" width="7.67" height="7.67" rx="3.7" transform="translate(-10.73 34.09) rotate(-45.01)"/></g></g></svg>