<svg xmlns="http://www.w3.org/2000/svg" xmlns:xlink="http://www.w3.org/1999/xlink" viewBox="0 0 72 71.92"><defs><style>.cls-1{fill:url(#未命名的渐变_29);}</style><linearGradient id="未命名的渐变_29" x1="14.38" y1="8.61" x2="58.11" y2="69.1" gradientUnits="userSpaceOnUse"><stop offset="0" stop-color="#6ed78c"/><stop offset="1" stop-color="#51af7f"/></linearGradient></defs><title>资源 7</title><g id="图层_2" data-name="图层 2"><g id="图层_1-2" data-name="图层 1"><path class="cls-1" d="M63,21.92H59.51L48.15,2.25A4.51,4.51,0,0,0,42,.6h0a4.51,4.51,0,0,0-1.65,6.15l8.76,15.17H22.89L31.65,6.75A4.51,4.51,0,0,0,30,.6h0a4.51,4.51,0,0,0-6.15,1.65L12.49,21.92H9a9,9,0,0,0-.67,18l3.42,23.45a10,10,0,0,0,9.92,8.58H51a10,10,0,0,0,10-9l2.39-23a9,9,0,0,0-.33-18ZM27,56.42a2.5,2.5,0,0,1-5,0v-10a2.5,2.5,0,0,1,5,0Zm11,0a2.5,2.5,0,0,1-5,0v-10a2.5,2.5,0,0,1,5,0Zm11,0a2.5,2.5,0,0,1-5,0v-10a2.5,2.5,0,0,1,5,0Z"/></g></g></svg>