<?xml version="1.0" standalone="no"?><!DOCTYPE svg PUBLIC "-//W3C//DTD SVG 1.1//EN" "http://www.w3.org/Graphics/SVG/1.1/DTD/svg11.dtd"><svg t="1516776340141" class="icon" style="" viewBox="0 0 1024 1024" version="1.1" xmlns="http://www.w3.org/2000/svg" p-id="10707" xmlns:xlink="http://www.w3.org/1999/xlink" width="32" height="32"><defs><style type="text/css"></style></defs><path d="M677.38624 895.367168c6.36928 8.501248 4.2496 19.80416-3.5328 26.161152-8.491008 6.356992-19.802112 1.765376-26.157056-6.025216L566.390784 804.864 243.283968 804.864c-37.462016 0-73.619456-13.09696-98.36544-37.107712C120.877056 743.008256 102.4 711.548928 102.4 674.791424L102.4 274.630656c0-37.484544 18.477056-74.969088 42.51648-99.715072C169.664512 150.874112 205.821952 131.072 243.283968 131.072l519.655424 0c36.755456 0 71.245824 19.802112 95.993856 43.843584 24.037376 24.745984 40.1408 62.232576 40.1408 99.715072l0 400.160768c0 36.755456-16.101376 70.7072-40.1408 95.455232-24.748032 24.016896-58.957824 39.579648-95.711232 39.579648-10.622976 0-19.236864-8.476672-19.236864-19.0976 0-9.887744 8.419328-18.364416 19.027968-18.364416 26.863616 0 45.568-11.32544 63.240192-29.00992 17.672192-17.657856 23.668736-41.699328 23.668736-68.564992L849.922048 274.630656c0-26.865664-6.017024-49.321984-23.699456-67.004416C808.56064 189.943808 789.803008 180.224 762.937344 180.224L243.283968 180.224c-26.865664 0-47.98464 9.719808-65.665024 27.40224C159.956992 225.31072 151.552 247.764992 151.552 274.630656l0 400.160768c0 26.863616 8.404992 54.85568 26.064896 72.538112C195.299328 765.014016 216.418304 780.288 243.283968 780.288l332.302336 0 0 0c5.65248 0 11.302912-1.828864 14.845952 3.090432L677.38624 895.367168z" p-id="10708" fill="#b4b4b4"></path><path d="M318.230528 444.30336c25.452544 0 45.959168 21.215232 45.959168 46.667776s-20.508672 45.961216-45.959168 45.961216c-25.454592 0-45.950976-20.51072-45.950976-45.961216S292.775936 444.30336 318.230528 444.30336L318.230528 444.30336z" p-id="10709" fill="#b4b4b4"></path><path d="M507.701248 444.30336c25.454592 0 45.963264 21.215232 45.963264 46.667776s-20.51072 45.961216-45.963264 45.961216c-25.452544 0-45.94688-20.51072-45.94688-45.961216S482.250752 444.30336 507.701248 444.30336L507.701248 444.30336z" p-id="10710" fill="#b4b4b4"></path><path d="M697.186304 536.932352c25.45664 0 45.950976-20.51072 45.950976-45.961216s-20.494336-46.667776-45.950976-46.667776c-25.452544 0-46.665728 21.215232-46.665728 46.667776S671.73376 536.932352 697.186304 536.932352L697.186304 536.932352z" p-id="10711" fill="#b4b4b4"></path></svg>