<?xml version="1.0" standalone="no"?><!DOCTYPE svg PUBLIC "-//W3C//DTD SVG 1.1//EN" "http://www.w3.org/Graphics/SVG/1.1/DTD/svg11.dtd"><svg t="1563951564305" class="icon" viewBox="0 0 1024 1024" version="1.1" xmlns="http://www.w3.org/2000/svg" p-id="4684" width="48" height="48" xmlns:xlink="http://www.w3.org/1999/xlink"><defs><style type="text/css"></style></defs><path d="M968.832 195.979636c15.674182 0 28.613818 5.108364 38.830545 15.336728 10.228364 10.216727 15.336727 22.481455 15.336728 36.782545v527.36c0 14.301091-5.108364 26.565818-15.336728 36.782546-10.216727 10.216727-23.156364 15.325091-38.830545 15.32509H311.68c-3.409455 0-8.354909-0.686545-14.813091-2.036363-6.481455-1.361455-11.415273-3.409455-14.824727-6.132364l-2.036364-2.048L18.362182 560.837818v-1.024C6.097455 549.585455-0.034909 533.585455-0.034909 511.778909c0-10.216727 1.536-19.421091 4.608-27.589818 3.072-8.180364 7.330909-14.999273 12.776727-20.445091l261.632-255.499636c1.361455-1.361455 4.759273-3.397818 10.216727-6.132364 6.818909-4.084364 15.325091-6.132364 25.541819-6.132364h654.091636zM834.944 655.883636c6.132364-9.530182 7.156364-18.059636 3.072-25.541818-4.084364-7.505455-10.903273-16.011636-20.445091-25.553454-11.578182-11.578182-27.415273-26.565818-47.522909-44.962909a41947.438545 41947.438545 0 0 0-64.896-59.275637 8616.785455 8616.785455 0 0 0 69.504-66.420363 4529.175273 4529.175273 0 0 0 49.058909-48.03491c8.168727-7.493818 12.264727-16.186182 12.264727-26.065454s-4.433455-18.571636-13.288727-26.053818a123.764364 123.764364 0 0 0-6.132364-5.620364c-2.722909-2.385455-4.759273-3.921455-6.120727-4.608-9.541818-6.132364-18.909091-8.506182-28.101818-7.156364-9.204364 1.361455-17.547636 5.794909-25.041455 13.288728-11.578182 11.578182-27.927273 27.252364-49.058909 47.010909a27272.285091 27272.285091 0 0 0-67.456 63.36c-21.108364-19.758545-40.704-38.318545-58.763636-55.703273s-32.872727-31.848727-44.450909-43.426909c-12.939636-13.626182-24.529455-21.469091-34.746182-23.517091-10.228364-2.036364-19.421091-0.686545-27.589818 4.096-1.361455 1.361455-4.608 3.746909-9.716364 7.156364-5.096727 3.397818-8.343273 5.794909-9.704727 7.156363-8.866909 7.493818-11.764364 16.861091-8.692364 28.101819 3.072 11.240727 13.125818 25.378909 30.149819 42.414545 10.914909 10.216727 25.216 23.68 42.926545 40.366545s36.794182 34.909091 57.227636 54.679273c-21.794909 20.433455-41.902545 39.342545-60.299636 56.727273s-33.384727 31.848727-44.974545 43.426909a112.314182 112.314182 0 0 0-22.993455 29.649455c-5.794909 10.903273-5.282909 20.770909 1.536 29.637818 1.361455 1.361455 4.258909 4.084364 8.680727 8.168727 4.433455 4.096 7.330909 6.818909 8.692364 8.180364 9.530182 7.493818 20.270545 10.042182 32.197818 7.656727s23.68-9.367273 35.258182-20.945455c11.578182-11.589818 26.565818-26.414545 44.962909-44.462545s38.504727-37.294545 60.299636-57.739636c23.168 21.794909 44.637091 42.065455 64.384 60.811636a2611.153455 2611.153455 0 0 1 48.034909 46.498909 67.2 67.2 0 0 0 30.673455 16.349091c11.578182 2.722909 21.108364 1.361455 28.613818-4.096l4.084364-4.084364 7.668363-8.692363c5.108364-5.783273 7.319273-8.506182 6.632728-8.168728-0.686545 0.337455 0.663273-1.198545 4.072727-4.608" fill="#333333" p-id="4685"></path></svg>