<?xml version="1.0" standalone="no"?><!DOCTYPE svg PUBLIC "-//W3C//DTD SVG 1.1//EN" "http://www.w3.org/Graphics/SVG/1.1/DTD/svg11.dtd"><svg t="1517048765211" class="icon" style="" viewBox="0 0 1024 1024" version="1.1" xmlns="http://www.w3.org/2000/svg" p-id="3987" xmlns:xlink="http://www.w3.org/1999/xlink" width="32" height="32"><defs><style type="text/css"></style></defs><path d="M624.113427 831.54885 133.815705 831.54885 133.815705 191.942567l490.297722 0 0 95.941096 63.960731 0L688.074158 159.962202c0-17.662265-14.3181-31.980365-31.980365-31.980365L101.83534 127.981836c-17.662265 0-31.980365 14.3181-31.980365 31.980365l0 703.567014c0 17.662265 14.3181 31.980365 31.980365 31.980365l554.258453 0c17.662265 0 31.980365-14.3181 31.980365-31.980365L688.074158 735.607754l-63.960731 0L624.113427 831.54885z" p-id="3988" fill="#ea6f5a"></path><path d="M955.938881 466.518133 764.05669 274.635941l-45.227064 45.227064 137.287783 137.287783-562.398854 0 0 63.960731 562.398854 0L718.829626 658.398278l45.227064 45.227064 191.882192-191.882192C968.42731 499.256768 968.42731 479.006562 955.938881 466.518133z" p-id="3989" fill="#ea6f5a"></path></svg>