<?xml version="1.0" standalone="no"?><!DOCTYPE svg PUBLIC "-//W3C//DTD SVG 1.1//EN" "http://www.w3.org/Graphics/SVG/1.1/DTD/svg11.dtd"><svg t="1559284085717" class="icon" style="" viewBox="0 0 1196 1024" version="1.1" xmlns="http://www.w3.org/2000/svg" p-id="2970" xmlns:xlink="http://www.w3.org/1999/xlink" width="74.75" height="64"><defs><style type="text/css"></style></defs><path d="M875.2384 436.71552c-2.87232 9.0368-5.74464 17.65376-9.02144 25.856 7.38304 29.52704 16.8192 57.84064 29.12768 83.69664 13.12768-31.1808 22.14912-67.69152 27.89376-109.54752h-48z" p-id="2971" fill="#bebebe"></path><path d="M1082.20416 235.31008H113.792C52.66944 235.31008 3.11296 284.86144 3.11296 345.98912v332.02688c0 61.12768 49.55136 110.67904 110.67904 110.67904h968.41216c61.12256 0 110.67904-49.55136 110.67904-110.67904V345.98912c0-61.12768-49.55136-110.67904-110.67904-110.67904z m-526.3616 468.0704c-80.00512-20.92544-129.64352-63.18592-162.86208-127.58528-22.98368 52.096-69.74976 98.4576-162.46272 126.7712-5.74464-11.48928-20.51072-32.8192-31.1808-42.6752 86.14912-25.43616 127.58528-66.03776 147.2768-111.17056H207.13984v-49.23904h153.42592c2.4576-16.39936 3.29216-33.21856 3.29216-49.21856v-15.60064H285.08672c-10.25536 20.52608-21.74464 38.98368-33.23904 53.34528-11.07456-7.79776-34.4576-20.51072-47.58528-26.25536 29.94688-31.60064 53.72928-84.51072 66.4576-137.02656l51.69152 11.07456c-4.51072 16.8192-9.856 33.21856-15.60064 49.21856h57.0368V320.22016H415.1296V385.024h125.952v49.6384h-125.952v15.60064c0 16-0.41984 32.8192-2.47296 49.21856h163.28192v49.23904H433.18272c28.71296 55.38304 79.17056 92.71296 155.47904 108.29824-11.48928 10.67008-26.25536 32.41472-32.8192 46.3616z m407.18336 0.41984c-26.65472-17.65376-49.6384-40.2176-68.51072-67.69152-23.38304 28.30848-52.096 50.85696-87.78752 69.32992-6.144-9.0368-23.80288-27.48928-33.6384-36.11136 41.84064-18.03776 73.02144-42.65472 96.00512-75.47904-11.48928-22.56384-21.34528-47.18592-29.96224-73.02144-5.32992 8.6016-11.07456 17.6384-17.21856 25.43616-4.51072-9.43616-18.87232-27.90912-28.30848-37.74464l-18.4576 10.65472c-1.65376-5.32992-4.10624-11.07456-6.98368-17.6384a437.94432 437.94432 0 0 1-22.56384 63.18592c20.92544 24.61696 39.38304 48 50.87232 67.69152l-38.98368 30.76608c-8.20224-15.1808-20.51072-33.6384-35.67616-53.32992-21.34528 34.85696-48.8192 63.98464-81.23904 85.32992-6.144-9.43616-22.9632-27.48928-32.40448-35.69152 35.2768-20.51072 62.76608-50.4576 83.2768-86.96832-13.94688-15.60064-27.89376-31.1808-41.43616-45.12768-4.09088 5.74464-7.79776 11.07456-11.48928 16-7.38304-8.2176-23.38304-23.38304-33.21856-30.78144 20.51072-23.38304 41.43616-59.07456 54.14912-91.89376l41.43616 13.12768c-12.30848 29.54752-30.36672 61.94688-47.18592 88.20224l30.36672-22.56384c9.02144 9.0368 18.4576 18.47296 27.48928 28.30848 4.91008-13.52704 9.4208-27.89376 12.70784-43.07456l38.96832 7.38304c-9.83552-18.4576-22.9632-38.56384-35.69152-54.96832l29.94688-16.8192h-140.6976V376.4224h81.22368c-4.92544-13.54752-13.54752-29.94688-21.32992-43.07456l41.4208-14.78144c10.6752 14.78144 21.34528 34.47296 25.43616 47.60064l-25.84064 10.25536h94.35136v43.89376h-46.76608c16 19.69152 32 43.47392 42.25536 63.58528 24.61696-43.07456 39.38304-102.56896 48-164.096l44.71296 7.38304c-2.87232 21.74464-7.38304 43.4944-12.30848 64.40448h101.32992v45.12768h-19.27168c-9.43616 62.76608-24.61696 114.87744-47.58528 157.53216 20.09088 29.54752 45.11232 53.74976 74.24 70.56896-11.06944 9.0112-25.83552 26.66496-33.63328 38.97856z" p-id="2972" fill="#bebebe"></path></svg>
