<?xml version="1.0" standalone="no"?><!DOCTYPE svg PUBLIC "-//W3C//DTD SVG 1.1//EN" "http://www.w3.org/Graphics/SVG/1.1/DTD/svg11.dtd"><svg t="1558856292609" class="icon" style="" viewBox="0 0 1024 1024" version="1.1" xmlns="http://www.w3.org/2000/svg" p-id="2982" xmlns:xlink="http://www.w3.org/1999/xlink" width="64" height="64"><defs><style type="text/css"></style></defs><path d="M652.8 834.56c15.36 0 25.6-10.24 25.6-25.6v-307.2c0-15.36-10.24-25.6-25.6-25.6s-25.6 10.24-25.6 25.6v307.2c0 12.8 10.24 25.6 25.6 25.6z m-128 0c15.36 0 25.6-10.24 25.6-25.6v-307.2c0-15.36-10.24-25.6-25.6-25.6s-25.6 10.24-25.6 25.6v307.2c0 12.8 10.24 25.6 25.6 25.6z m281.6-614.4h-153.6v-51.2c0-28.16-23.04-51.2-51.2-51.2h-153.6c-28.16 0-51.2 23.04-51.2 51.2v51.2h-153.6c-28.16 0-51.2 23.04-51.2 51.2v51.2c0 28.16 23.04 51.2 51.2 51.2v460.8c0 56.32 46.08 102.4 102.4 102.4h358.4c56.32 0 102.4-46.08 102.4-102.4v-460.8c28.16 0 51.2-23.04 51.2-51.2v-51.2c0-28.16-23.04-51.2-51.2-51.2z m-358.4-25.6c0-15.36 10.24-25.6 25.6-25.6h102.4c15.36 0 25.6 10.24 25.6 25.6v25.6h-153.6v-25.6z m307.2 640c0 28.16-23.04 51.2-51.2 51.2h-358.4c-28.16 0-51.2-23.04-51.2-51.2v-460.8h460.8v460.8z m25.6-512h-512c-15.36 0-25.6-10.24-25.6-25.6s10.24-25.6 25.6-25.6h512c15.36 0 25.6 10.24 25.6 25.6 0 12.8-10.24 25.6-25.6 25.6z m-384 512c15.36 0 25.6-10.24 25.6-25.6v-307.2c0-15.36-10.24-25.6-25.6-25.6s-25.6 10.24-25.6 25.6v307.2c0 12.8 10.24 25.6 25.6 25.6z" p-id="2983" fill="#333333"></path></svg>