<svg xmlns="http://www.w3.org/2000/svg" viewBox="0 0 60 60"><defs><style>.cls-1{fill:#fff;}.cls-2{fill:#51af7f;}</style></defs><title>资源 16</title><g id="图层_2" data-name="图层 2"><g id="图层_1-2" data-name="图层 1"><rect class="cls-1" width="60" height="60" rx="30"/><path class="cls-2" d="M52.74,26,34.4,8.86a6.62,6.62,0,0,0-8.78,0L7.28,26a.8.8,0,0,0,.54,1.4H10a.8.8,0,0,1,.8.81V46.34a6.6,6.6,0,0,0,6.6,6.6H42a6.59,6.59,0,0,0,6.6-6.6V28.16a.81.81,0,0,1,.81-.81h2.84A.8.8,0,0,0,52.74,26Zm-25,17.89a2.28,2.28,0,0,1-2.28,2.28H19.25A2.29,2.29,0,0,1,17,43.84V30a2.3,2.3,0,0,1,2.29-2.29h6.17A2.29,2.29,0,0,1,27.7,30Z"/></g></g></svg>