<svg xmlns="http://www.w3.org/2000/svg" viewBox="0 0 71.91 71.51"><defs><style>.cls-1{fill:#bebebe;}</style></defs><title>资源 2</title><g id="图层_2" data-name="图层 2"><g id="图层_1-2" data-name="图层 1"><path class="cls-1" d="M71.48,29.32,42.81,2.61a10.31,10.31,0,0,0-13.71,0L.42,29.32a1.25,1.25,0,0,0,.84,2.19H4.7A1.25,1.25,0,0,1,6,32.77V61.19A10.32,10.32,0,0,0,16.28,71.51H54.63A10.32,10.32,0,0,0,65,61.19V32.77a1.26,1.26,0,0,1,1.26-1.26h4.44A1.25,1.25,0,0,0,71.48,29.32ZM42,52.51H30a4,4,0,1,1,0-8H42a4,4,0,0,1,0,8Z"/></g></g></svg>