<?xml version="1.0" encoding="utf-8"?>
<!-- Generator: Adobe Illustrator 23.0.0, SVG Export Plug-In . SVG Version: 6.00 Build 0)  -->
<svg version="1.1" id="图层_1" xmlns="http://www.w3.org/2000/svg" xmlns:xlink="http://www.w3.org/1999/xlink" x="0px" y="0px"
	 viewBox="0 0 226.8 226.8" style="enable-background:new 0 0 226.8 226.8;" xml:space="preserve">
<style type="text/css">
	.st0{fill:#FFFFFF;}
</style>
<g>
	<g>
		<path class="st0" d="M15,114.6C15,60.2,59.1,16,113.6,16s98.6,44.2,98.6,98.6c0,18.1-4.9,35.1-13.4,49.7h12.5
			c7.6-14.9,11.9-31.8,11.9-49.7C223.3,54.1,174.2,5,113.6,5S4,54.1,4,114.6c0,17.9,4.3,34.7,11.9,49.7h12.5
			C19.9,149.7,15,132.7,15,114.6z"/>
		<g>
			<path class="st0" d="M68.7,102.4c1.8-29.2,25.1-53,54.3-55.3c9-0.7,17.6,0.6,25.5,3.5c0.3,0.1,0.4-0.3,0.2-0.4
				c-8.8-5.9-19.3-9.4-30.6-9.5c-31-0.4-56.9,24.8-57.3,55.7c-0.2,15.2,5.6,29,15.1,39.2c0.2,0.2,0.5,0,0.4-0.3
				C70.8,125.7,68,114.4,68.7,102.4z"/>
			<path class="st0" d="M165,105.7c3-6.2,4.4-13.3,3.6-20.8c-1.9-18.4-16.9-33-35.3-34.5c-8.5-0.7-16.5,1.4-23.2,5.5
				c-0.3,0.2-0.1,0.5,0.2,0.5c3.6-0.9,7.3-1.4,11.1-1.4c24.2,0,43.8,19.6,43.8,43.8c0,2.4-0.2,4.7-0.6,7
				C164.6,106,164.9,106,165,105.7z"/>
			<path class="st0" d="M159.2,124.1c-0.3,0.1-0.5-0.3-0.2-0.5c6.1-4.3,11.8-11,12.6-17.3c0.8-6.6-5.1-6-5.1-6l0.7-2.8
				c18.3-12.2,8.3-15.5,5.4-16.2c-0.3-0.1-0.4-0.4-0.1-0.6c14.3-11.4,12-25-11.4-13.2l-1.8-2.3c15.9-15.9-4.3-13.9-8.8-13.5
				c-0.2,0-0.4-0.3-0.2-0.4c8.4-7,30.4-11.2,21.1,7.1c-0.1,0.3,0.1,0.6,0.4,0.5c25.6-6.1,18.8,10.6,10.7,16.9
				c-0.2,0.2-0.2,0.5,0,0.6c1.8,1.5,8.4,8.7-5.4,19.4c-0.2,0.2-0.3,0.5-0.2,0.7C181.3,109.2,170.7,122.1,159.2,124.1z"/>
			<path class="st0" d="M156.6,130.1c-2.6,1.5-8.4,4.8-12.2,8.2c-0.2,0.2-0.5,0-0.6-0.2c-0.2-5.6-2.2-9.8-2.9-11
				c-0.1-0.2-0.4-0.2-0.6,0c-1.2,1.7-5.7,8.3-7.5,16.3c-0.1,0.3-0.3,0.5-0.6,0.5l-4,0.2c-0.3,0-0.5-0.2-0.6-0.4
				c-5.3-13.9-12.5-23.9-14.5-26.6c-0.2-0.2-0.5-0.1-0.5,0.2c0.3,3.6,1.8,17.7,8.1,28.2c0.2,0.3,0,0.6-0.3,0.6
				c-1.5,0-5.1-0.1-8.6-0.6c-0.5-0.1-0.9-0.3-1.2-0.7c-4.3-5.1-12.2-16.1-14.2-19c-0.2-0.2-0.5-0.1-0.5,0.2c0,2.8,0.3,11.8,5.1,18.2
				c0.2,0.2-0.1,0.5-0.3,0.4c-31.5-13.7-18.3-40.8-7.7-25.1c0.2,0.3,0.6,0.1,0.5-0.2c-1.3-8.3,0.5-31.8,12.7-14.4
				c0.2,0.3,0.8,0.2,0.8-0.2c5-24.7,15.7-10.5,15.1,1.2c0,0.4,0.5,0.7,0.8,0.3c18.1-18.5,15.7-2.9,17.6,8.7c0.5,3,2.4,4.8,4.9,4.8
				c14.6,0,18.2-27.3,14-34.5c-0.2-0.3-0.6-0.2-0.6,0.1c-2.2,13.2-6.5,21-10,23.9c-0.9,0.8-2.4,0.2-2.5-1
				C144.6,86.5,134,88,126.9,97c-0.3,0.4-1,0.2-1.1-0.3c-4.6-24.8-18.9-12.7-22.2-6.5c-0.3,0.5-0.9,0.7-1.3,0.4
				c-13.5-7.4-14.3,7.7-14.3,11.2c0,0.3-0.3,0.4-0.5,0.2c-2.8-2.5-13.9-12.6-13.9,12.7c0,32.4,51.6,57.8,83.5,15.8
				C157.3,130.3,156.9,129.9,156.6,130.1z"/>
			<path class="st0" d="M55.6,96.1c0.3,0.6-0.2,1.3-0.9,1.3c-2.4,0-7.1,0.4-7.9,3.5c-1.4,5.3,3.9,17.7,17.5,24.8
				c0.3,0.2,0.1,0.6-0.2,0.5c-22.5-4.6-38-33.6-18.4-37.2c0.5-0.1,0.8-0.6,0.6-1c-4-12-1.8-19.3-0.1-22.6c0.7-1.4,2.2-2.2,3.8-2.1
				c2,0.2,4.9,0.9,6.6,3c0.2,0.2,0.5,0.1,0.5-0.2c-2-12.8,9.1-38.3,17.5-18.2c0.2,0.4,0.7,0.4,0.9,0c1.5-4.6,7.5-20.1,14.4-8.1
				c0.3,0.4,0.9,0.4,1.1,0c6.1-11.7,26.8-31,24.2,2.3l-4.5,1.7c0,0,1.6-11.2-4.8-11.2c-6.4,0-11.5,14.1-11.5,14.1l-6.6,7.9
				c0,0,2.8-12-3.1-10.1c-6.3,2-6.9,12.9-6.9,14.3l-3.3,5.7c0,0-3.1-15.9-8.3-12.4c-7.3,5-0.7,26.6-0.7,26.6l-1.6,5.5
				c0,0-7-14.7-11.1-11.8C47.9,75.9,53.7,91.4,55.6,96.1z"/>
		</g>
		<g>
			<g>
				<path class="st0" d="M88.8,169.3H86l-0.1-0.1c-0.1-0.1-1.8-3.3-0.2-7.1c1.7-4.1,6.6-7.2,14.5-9.3c0.3-0.1,0.6,0,0.8,0.3
					c0.1,0.2,0.1,0.4-0.1,0.6c-0.2,0.4-0.5,1.4-0.6,2C100.3,160,98.7,167.5,88.8,169.3L88.8,169.3z M86.7,168.3H89
					c8.4-1.6,10.2-7.5,10.3-12.2c0-0.7,0.3-1.7,0.6-2.2c0,0,0,0-0.1,0c-7.2,1.9-11.6,4.7-13.2,8.4C85.4,165.1,86.4,167.7,86.7,168.3
					z"/>
			</g>
			<path class="st0" d="M94.4,160.5c-6.1,2.6-6.6,8.4-6.6,8.4h-1.2C86.6,169,87.2,162.5,94.4,160.5z"/>
		</g>
		<g>
			<path class="st0" d="M44.1,193.3l9-5.5v-19.5H3.1v25h6.3l-9.2,10.8h10.2l1.2-1.5h5.1L4.4,220.1h10.5L26,202.6h5l-12.2,17.5h10.5
				l11.1-17.5h3.1v11.2h-6v6.3H44l8.9-5.5v-18.3H16.7l1.6-2.9H44.1z M12.7,187.6v-3.8H39l2.8-5.4H12.7v-4.2h31v13.4H12.7z"/>
			<g>
				<polygon class="st0" points="70,175.1 102.7,175.1 102.7,179.2 112,176.2 112,169 60.7,169 60.7,179.2 70,176.2 				"/>
				<path class="st0" d="M85.7,185.4h23.6l2.6-5.3H61v5.5h10.9L59.2,195H72l2.6-1.9h10.7v2.9H73.9l-15,10.8h13.4l13-10.2v8.3h-7
					L60,220c1.5,0,12.4,0,12.4,0l12.8-11.3v5.3h-4.9v6.1h4.2l10-6.2v-25.7H82.4L85.7,185.4z"/>
				<polygon class="st0" points="111.1,187.3 101.6,187.3 95.4,197.4 105.8,197.4 				"/>
				<polygon class="st0" points="95.9,199.8 102.9,219.6 113,219.6 105.3,199.8 				"/>
				<path class="st0" d="M124.9,181.1l9-2.5v-2.2h19.9v3.8l8.7-1.8v-2h4.4l3.3-5.2h-7.6v-3.6h-8.8v3.6H134v-3.8h-9.2v3.8h-7.6
					c0,0-0.1,2.4-0.1,5.2c0.6,0,7.8,0,7.8,0V181.1z"/>
				<path class="st0" d="M169.2,182.1h-51.4c0,0,0,2.3,0,6.6c0.5,0,50.2,0,50.2,0L169.2,182.1z"/>
				<polygon class="st0" points="123.4,198.4 133.2,198.4 127.8,190.3 118.4,190.3 				"/>
				<polygon class="st0" points="140.7,198.4 150.5,198.4 145.2,190.3 135.7,190.3 				"/>
				<polygon class="st0" points="153.8,198.4 163.5,198.4 168.5,190.3 159.1,190.3 				"/>
				<polygon class="st0" points="148.2,199.7 138.9,199.7 138.9,201.1 118.1,201.1 118.1,207.2 138.9,207.2 138.9,221.4 
					148.2,217.6 148.2,207.2 166.6,207.2 169.9,201.1 148.2,201.1 				"/>
				<polygon class="st0" points="118.2,219.6 128.4,219.6 134.2,208.6 124.9,208.6 				"/>
				<polygon class="st0" points="153.2,208.6 159,219.6 169.1,219.6 162.4,208.6 				"/>
			</g>
			<g>
				<path class="st0" d="M176.2,168.3v51.8h42.4l8.4-6.3v-45.7C227,168.1,176.9,168.3,176.2,168.3z M218.7,214h-34.2v-39.3h34.2V214
					z"/>
				<path class="st0" d="M217.3,178.3h-30.9c0,0,0,3.6,0,6.1c7.3,0,28.2,0,28.2,0L217.3,178.3z"/>
				<polygon class="st0" points="200.6,195.8 192.1,195.8 186.2,211 194.8,211 				"/>
				<path class="st0" d="M203.3,211H215l2.7-5.4h-5.8v-12c1.7,0,2.8,0,2.8,0l2.6-6.1h-30.9c0,0,0,3.6,0,6.1c3.7,0,10.7,0,16.9,0V211
					z"/>
			</g>
		</g>
	</g>
</g>
</svg>
