<?xml version="1.0" standalone="no"?><!DOCTYPE svg PUBLIC "-//W3C//DTD SVG 1.1//EN" "http://www.w3.org/Graphics/SVG/1.1/DTD/svg11.dtd"><svg t="1516776277058" class="icon" style="" viewBox="0 0 1024 1024" version="1.1" xmlns="http://www.w3.org/2000/svg" p-id="8885" xmlns:xlink="http://www.w3.org/1999/xlink" width="32" height="32"><defs><style type="text/css"></style></defs><path d="M931.2 147.7C871.6 87.9 792.4 55 708.1 55c-71.5 0-140.2 24-196.1 68-55.9-44-124.7-68-196.2-68-84.3 0-163.5 32.9-223.1 92.7C33 207.9 0 287.8 0 372.6c0 85 33 164.9 92.9 224.9l335.6 336.9c22.4 22.4 52 34.7 83.6 34.7 31.5 0 61.2-12.3 83.6-34.7 33.5-33.6 324-325.2 335.5-336.8 59.9-60.1 92.8-140 92.8-224.9s-33-164.8-92.8-225z" p-id="8886" fill="#b4b4b4"></path></svg>