<svg xmlns="http://www.w3.org/2000/svg" xmlns:xlink="http://www.w3.org/1999/xlink" viewBox="0 0 72 72"><defs><style>.cls-1{fill:url(#未命名的渐变_29);}</style><linearGradient id="未命名的渐变_29" y1="36" x2="72" y2="36" gradientUnits="userSpaceOnUse"><stop offset="0" stop-color="#6ed78c"/><stop offset="1" stop-color="#51af7f"/></linearGradient></defs><title>资源 16</title><g id="图层_2" data-name="图层 2"><g id="图层_1-2" data-name="图层 1"><path class="cls-1" d="M62,9H46.81A11,11,0,0,0,25.19,9H10A10,10,0,0,0,0,19V62A10,10,0,0,0,10,72H62A10,10,0,0,0,72,62V19A10,10,0,0,0,62,9ZM36,4a7,7,0,1,1-7,7A7,7,0,0,1,36,4ZM21,25H37a2,2,0,0,1,0,4H21a2,2,0,0,1,0-4Zm4,19H21a2,2,0,0,1,0-4h4a2,2,0,0,1,0,4ZM57.36,26,36.66,58A4.91,4.91,0,0,1,35,59.6l-3.8,2.17a1.24,1.24,0,0,1-1.84-1.23l.55-4.41A4.94,4.94,0,0,1,30.62,54L48.75,26a2.25,2.25,0,0,1,1.88-1h6.19A.64.64,0,0,1,57.36,26Z"/></g></g></svg>